<svg width="20" height="20" viewBox="0 0 20 20" fill="none" xmlns="http://www.w3.org/2000/svg">
<path d="M1.66675 3.20312C1.66675 2.81348 1.979 2.5 2.36713 2.5H3.69494C4.33696 2.5 4.90602 2.875 5.17159 3.4375H17.1657C17.9332 3.4375 18.4935 4.16992 18.2921 4.91406L17.0956 9.37598C16.8476 10.2959 16.0159 10.9375 15.0674 10.9375H6.64823L6.80581 11.7725C6.87002 12.1035 7.15892 12.3438 7.49452 12.3438H15.9079C16.296 12.3438 16.6083 12.6572 16.6083 13.0469C16.6083 13.4365 16.296 13.75 15.9079 13.75H7.49452C6.4848 13.75 5.61808 13.0293 5.43131 12.0361L3.92549 4.09668C3.90506 3.98535 3.80876 3.90625 3.69494 3.90625H2.36713C1.979 3.90625 1.66675 3.59277 1.66675 3.20312ZM5.40213 16.0938C5.40213 15.9091 5.43836 15.7262 5.50876 15.5556C5.57915 15.385 5.68233 15.23 5.8124 15.0994C5.94248 14.9688 6.0969 14.8652 6.26685 14.7945C6.43679 14.7239 6.61894 14.6875 6.8029 14.6875C6.98685 14.6875 7.169 14.7239 7.33895 14.7945C7.5089 14.8652 7.66331 14.9688 7.79339 15.0994C7.92346 15.23 8.02664 15.385 8.09704 15.5556C8.16743 15.7262 8.20366 15.9091 8.20366 16.0938C8.20366 16.2784 8.16743 16.4613 8.09704 16.6319C8.02664 16.8025 7.92346 16.9575 7.79339 17.0881C7.66331 17.2187 7.5089 17.3223 7.33895 17.393C7.169 17.4636 6.98685 17.5 6.8029 17.5C6.61894 17.5 6.43679 17.4636 6.26685 17.393C6.0969 17.3223 5.94248 17.2187 5.8124 17.0881C5.68233 16.9575 5.57915 16.8025 5.50876 16.6319C5.43836 16.4613 5.40213 16.2784 5.40213 16.0938ZM15.2075 14.6875C15.579 14.6875 15.9353 14.8357 16.198 15.0994C16.4607 15.3631 16.6083 15.7208 16.6083 16.0938C16.6083 16.4667 16.4607 16.8244 16.198 17.0881C15.9353 17.3518 15.579 17.5 15.2075 17.5C14.836 17.5 14.4797 17.3518 14.217 17.0881C13.9543 16.8244 13.8067 16.4667 13.8067 16.0938C13.8067 15.7208 13.9543 15.3631 14.217 15.0994C14.4797 14.8357 14.836 14.6875 15.2075 14.6875ZM9.02078 7.1875C9.02078 7.50977 9.28342 7.77344 9.60443 7.77344H10.8885V9.0625C10.8885 9.38477 11.1511 9.64844 11.4721 9.64844C11.7931 9.64844 12.0558 9.38477 12.0558 9.0625V7.77344H13.3398C13.6608 7.77344 13.9235 7.50977 13.9235 7.1875C13.9235 6.86523 13.6608 6.60156 13.3398 6.60156H12.0558V5.3125C12.0558 4.99023 11.7931 4.72656 11.4721 4.72656C11.1511 4.72656 10.8885 4.99023 10.8885 5.3125V6.60156H9.60443C9.28342 6.60156 9.02078 6.86523 9.02078 7.1875Z" fill="#637381"/>
</svg>
